<svg height="1422" width="720" xmlns="http://www.w3.org/2000/svg">
<rect height="1422" fill="#555" width="720"></rect>
<text fill="#7f7" font-family="Courier New" font-size="12" xml:space="preserve">
<tspan x="10" y="26">13 megabytes installed</tspan>
<tspan x="10" y="42"></tspan>
<tspan x="10" y="58">node_modules</tspan>
<tspan x="10" y="74">└─┬ react-render-service@1.0.0 </tspan>
<tspan x="10" y="90">  ├─┬ body-parser@1.17.1 </tspan>
<tspan x="10" y="106">  │ ├── bytes@2.4.0 </tspan>
<tspan x="10" y="122">  │ ├── content-type@1.0.2 </tspan>
<tspan x="10" y="138">  │ ├─┬ debug@2.6.1 </tspan>
<tspan x="10" y="154">  │ │ └── ms@0.7.2 </tspan>
<tspan x="10" y="170">  │ ├── depd@1.1.0 </tspan>
<tspan x="10" y="186">  │ ├─┬ http-errors@1.6.1 </tspan>
<tspan x="10" y="202">  │ │ └── inherits@2.0.3 </tspan>
<tspan x="10" y="218">  │ ├── iconv-lite@0.4.15 </tspan>
<tspan x="10" y="234">  │ ├─┬ on-finished@2.3.0 </tspan>
<tspan x="10" y="250">  │ │ └── ee-first@1.1.1 </tspan>
<tspan x="10" y="266">  │ ├── qs@6.4.0 </tspan>
<tspan x="10" y="282">  │ ├─┬ raw-body@2.2.0 </tspan>
<tspan x="10" y="298">  │ │ └── unpipe@1.0.0 </tspan>
<tspan x="10" y="314">  │ └─┬ type-is@1.6.15 </tspan>
<tspan x="10" y="330">  │   ├── media-typer@0.3.0 </tspan>
<tspan x="10" y="346">  │   └─┬ mime-types@2.1.15 </tspan>
<tspan x="10" y="362">  │     └── mime-db@1.27.0 </tspan>
<tspan x="10" y="378">  ├─┬ express@4.15.2 </tspan>
<tspan x="10" y="394">  │ ├─┬ accepts@1.3.3 </tspan>
<tspan x="10" y="410">  │ │ └── negotiator@0.6.1 </tspan>
<tspan x="10" y="426">  │ ├── array-flatten@1.1.1 </tspan>
<tspan x="10" y="442">  │ ├── content-disposition@0.5.2 </tspan>
<tspan x="10" y="458">  │ ├── cookie@0.3.1 </tspan>
<tspan x="10" y="474">  │ ├── cookie-signature@1.0.6 </tspan>
<tspan x="10" y="490">  │ ├── encodeurl@1.0.1 </tspan>
<tspan x="10" y="506">  │ ├── escape-html@1.0.3 </tspan>
<tspan x="10" y="522">  │ ├── etag@1.8.0 </tspan>
<tspan x="10" y="538">  │ ├─┬ finalhandler@1.0.1 </tspan>
<tspan x="10" y="554">  │ │ └── debug@2.6.3 </tspan>
<tspan x="10" y="570">  │ ├── fresh@0.5.0 </tspan>
<tspan x="10" y="586">  │ ├── merge-descriptors@1.0.1 </tspan>
<tspan x="10" y="602">  │ ├── methods@1.1.2 </tspan>
<tspan x="10" y="618">  │ ├── parseurl@1.3.1 </tspan>
<tspan x="10" y="634">  │ ├── path-to-regexp@0.1.7 </tspan>
<tspan x="10" y="650">  │ ├─┬ proxy-addr@1.1.4 </tspan>
<tspan x="10" y="666">  │ │ ├── forwarded@0.1.0 </tspan>
<tspan x="10" y="682">  │ │ └── ipaddr.js@1.3.0 </tspan>
<tspan x="10" y="698">  │ ├── range-parser@1.2.0 </tspan>
<tspan x="10" y="714">  │ ├─┬ send@0.15.1 </tspan>
<tspan x="10" y="730">  │ │ ├── destroy@1.0.4 </tspan>
<tspan x="10" y="746">  │ │ └── mime@1.3.4 </tspan>
<tspan x="10" y="762">  │ ├── serve-static@1.12.1 </tspan>
<tspan x="10" y="778">  │ ├── setprototypeof@1.0.3 </tspan>
<tspan x="10" y="794">  │ ├── statuses@1.3.1 </tspan>
<tspan x="10" y="810">  │ ├── utils-merge@1.0.0 </tspan>
<tspan x="10" y="826">  │ └── vary@1.1.1 </tspan>
<tspan x="10" y="842">  ├─┬ morgan@1.8.1 </tspan>
<tspan x="10" y="858">  │ ├── basic-auth@1.1.0 </tspan>
<tspan x="10" y="874">  │ └── on-headers@1.0.1 </tspan>
<tspan x="10" y="890">  ├─┬ react@15.5.4 </tspan>
<tspan x="10" y="906">  │ ├─┬ fbjs@0.8.12 </tspan>
<tspan x="10" y="922">  │ │ ├── core-js@1.2.7 </tspan>
<tspan x="10" y="938">  │ │ ├─┬ isomorphic-fetch@2.2.1 </tspan>
<tspan x="10" y="954">  │ │ │ ├─┬ node-fetch@1.6.3 </tspan>
<tspan x="10" y="970">  │ │ │ │ ├── encoding@0.1.12 </tspan>
<tspan x="10" y="986">  │ │ │ │ └── is-stream@1.1.0 </tspan>
<tspan x="10" y="1002">  │ │ │ └── whatwg-fetch@2.0.3 </tspan>
<tspan x="10" y="1018">  │ │ ├─┬ promise@7.1.1 </tspan>
<tspan x="10" y="1034">  │ │ │ └── asap@2.0.5 </tspan>
<tspan x="10" y="1050">  │ │ ├── setimmediate@1.0.5 </tspan>
<tspan x="10" y="1066">  │ │ └── ua-parser-js@0.7.12 </tspan>
<tspan x="10" y="1082">  │ ├─┬ loose-envify@1.3.1 </tspan>
<tspan x="10" y="1098">  │ │ └── js-tokens@3.0.1 </tspan>
<tspan x="10" y="1114">  │ ├── object-assign@4.1.1 </tspan>
<tspan x="10" y="1130">  │ └── prop-types@15.5.8 </tspan>
<tspan x="10" y="1146">  ├── react-dom@15.5.4 </tspan>
<tspan x="10" y="1162">  └─┬ yargs@3.32.0 </tspan>
<tspan x="10" y="1178">    ├── camelcase@2.1.1 </tspan>
<tspan x="10" y="1194">    ├─┬ cliui@3.2.0 </tspan>
<tspan x="10" y="1210">    │ ├─┬ strip-ansi@3.0.1 </tspan>
<tspan x="10" y="1226">    │ │ └── ansi-regex@2.1.1 </tspan>
<tspan x="10" y="1242">    │ └── wrap-ansi@2.1.0 </tspan>
<tspan x="10" y="1258">    ├── decamelize@1.2.0 </tspan>
<tspan x="10" y="1274">    ├─┬ os-locale@1.4.0 </tspan>
<tspan x="10" y="1290">    │ └─┬ lcid@1.0.0 </tspan>
<tspan x="10" y="1306">    │   └── invert-kv@1.0.0 </tspan>
<tspan x="10" y="1322">    ├─┬ string-width@1.0.2 </tspan>
<tspan x="10" y="1338">    │ ├── code-point-at@1.1.0 </tspan>
<tspan x="10" y="1354">    │ └─┬ is-fullwidth-code-point@1.0.0 </tspan>
<tspan x="10" y="1370">    │   └── number-is-nan@1.0.1 </tspan>
<tspan x="10" y="1386">    ├── window-size@0.1.4 </tspan>
<tspan x="10" y="1402">    └── y18n@3.2.1</tspan>
</text>
</svg>
